<svg width="218" height="53" viewBox="0 0 218 53" fill="none" xmlns="http://www.w3.org/2000/svg">
<mask id="path-1-outside-1_2_2" maskUnits="userSpaceOnUse" x="0" y="0" width="218" height="53" fill="black">
<rect fill="white" width="218" height="53"/>
<path d="M13.3636 51.5909C11.1364 51.5909 9.15909 51.2197 7.43182 50.4773C5.7197 49.7197 4.36364 48.5833 3.36364 47.0682C2.37879 45.5379 1.88636 43.6212 1.88636 41.3182C1.88636 39.3788 2.22727 37.7424 2.90909 36.4091C3.59091 35.0758 4.5303 33.9924 5.72727 33.1591C6.92424 32.3258 8.30303 31.697 9.86364 31.2727C11.4242 30.8333 13.0909 30.5379 14.8636 30.3864C16.8485 30.2045 18.447 30.0152 19.6591 29.8182C20.8712 29.6061 21.75 29.3106 22.2955 28.9318C22.8561 28.5379 23.1364 27.9848 23.1364 27.2727V27.1591C23.1364 25.9924 22.7348 25.0909 21.9318 24.4545C21.1288 23.8182 20.0455 23.5 18.6818 23.5C17.2121 23.5 16.0303 23.8182 15.1364 24.4545C14.2424 25.0909 13.6742 25.9697 13.4318 27.0909L3.18182 26.7273C3.48485 24.6061 4.26515 22.7121 5.52273 21.0455C6.79545 19.3636 8.53788 18.0455 10.75 17.0909C12.9773 16.1212 15.6515 15.6364 18.7727 15.6364C21 15.6364 23.053 15.9015 24.9318 16.4318C26.8106 16.947 28.447 17.7045 29.8409 18.7045C31.2348 19.6894 32.3106 20.9015 33.0682 22.3409C33.8409 23.7803 34.2273 25.4242 34.2273 27.2727V51H23.7727V46.1364H23.5C22.8788 47.3182 22.0833 48.3182 21.1136 49.1364C20.1591 49.9545 19.0303 50.5682 17.7273 50.9773C16.4394 51.3864 14.9848 51.5909 13.3636 51.5909ZM16.7955 44.3182C17.9924 44.3182 19.0682 44.0758 20.0227 43.5909C20.9924 43.1061 21.7652 42.4394 22.3409 41.5909C22.9167 40.7273 23.2045 39.7273 23.2045 38.5909V35.2727C22.8864 35.4394 22.5 35.5909 22.0455 35.7273C21.6061 35.8636 21.1212 35.9924 20.5909 36.1136C20.0606 36.2348 19.5152 36.3409 18.9545 36.4318C18.3939 36.5227 17.8561 36.6061 17.3409 36.6818C16.2955 36.8485 15.4015 37.1061 14.6591 37.4545C13.9318 37.803 13.3712 38.2576 12.9773 38.8182C12.5985 39.3636 12.4091 40.0152 12.4091 40.7727C12.4091 41.9242 12.8182 42.803 13.6364 43.4091C14.4697 44.0152 15.5227 44.3182 16.7955 44.3182ZM41.0227 51V16.0909H52.1364V51H41.0227ZM46.5909 12.0227C45.0303 12.0227 43.6894 11.5076 42.5682 10.4773C41.447 9.43182 40.8864 8.17424 40.8864 6.70454C40.8864 5.25 41.447 4.00757 42.5682 2.97727C43.6894 1.93182 45.0303 1.40909 46.5909 1.40909C48.1667 1.40909 49.5076 1.93182 50.6136 2.97727C51.7348 4.00757 52.2955 5.25 52.2955 6.70454C52.2955 8.17424 51.7348 9.43182 50.6136 10.4773C49.5076 11.5076 48.1667 12.0227 46.5909 12.0227Z"/>
<path d="M59.2102 51V4.45454H78.6193C82.1042 4.45454 85.0208 4.94697 87.3693 5.93182C89.733 6.91666 91.5057 8.29545 92.6875 10.0682C93.8845 11.8409 94.483 13.8939 94.483 16.2273C94.483 18 94.1117 19.5833 93.3693 20.9773C92.6269 22.3561 91.6042 23.5 90.3011 24.4091C88.9981 25.3182 87.4905 25.9545 85.7784 26.3182V26.7727C87.6572 26.8636 89.392 27.3712 90.983 28.2955C92.589 29.2197 93.8769 30.5076 94.8466 32.1591C95.8163 33.7955 96.3011 35.7348 96.3011 37.9773C96.3011 40.4773 95.6648 42.7121 94.392 44.6818C93.1193 46.6364 91.2784 48.1818 88.8693 49.3182C86.4602 50.4394 83.536 51 80.0966 51H59.2102ZM70.4602 41.9318H77.4148C79.8542 41.9318 81.6496 41.4697 82.8011 40.5455C83.9678 39.6212 84.5511 38.3333 84.5511 36.6818C84.5511 35.4848 84.2708 34.4545 83.7102 33.5909C83.1496 32.7121 82.3542 32.0379 81.3239 31.5682C80.2936 31.0833 79.0587 30.8409 77.6193 30.8409H70.4602V41.9318ZM70.4602 23.5909H76.6875C77.9148 23.5909 79.0057 23.3864 79.9602 22.9773C80.9148 22.5682 81.6572 21.9773 82.1875 21.2045C82.733 20.4318 83.0057 19.5 83.0057 18.4091C83.0057 16.8485 82.4527 15.6212 81.3466 14.7273C80.2405 13.8333 78.7481 13.3864 76.8693 13.3864H70.4602V23.5909ZM118.006 51.6591C114.339 51.6591 111.188 50.9091 108.551 49.4091C105.93 47.8939 103.907 45.7879 102.483 43.0909C101.074 40.3788 100.369 37.2348 100.369 33.6591C100.369 30.0682 101.074 26.9242 102.483 24.2273C103.907 21.5152 105.93 19.4091 108.551 17.9091C111.188 16.3939 114.339 15.6364 118.006 15.6364C121.672 15.6364 124.816 16.3939 127.438 17.9091C130.074 19.4091 132.097 21.5152 133.506 24.2273C134.93 26.9242 135.642 30.0682 135.642 33.6591C135.642 37.2348 134.93 40.3788 133.506 43.0909C132.097 45.7879 130.074 47.8939 127.438 49.4091C124.816 50.9091 121.672 51.6591 118.006 51.6591ZM118.074 43.2727C119.407 43.2727 120.536 42.8636 121.46 42.0455C122.384 41.2273 123.089 40.0909 123.574 38.6364C124.074 37.1818 124.324 35.5 124.324 33.5909C124.324 31.6515 124.074 29.9545 123.574 28.5C123.089 27.0455 122.384 25.9091 121.46 25.0909C120.536 24.2727 119.407 23.8636 118.074 23.8636C116.695 23.8636 115.528 24.2727 114.574 25.0909C113.634 25.9091 112.915 27.0455 112.415 28.5C111.93 29.9545 111.688 31.6515 111.688 33.5909C111.688 35.5 111.93 37.1818 112.415 38.6364C112.915 40.0909 113.634 41.2273 114.574 42.0455C115.528 42.8636 116.695 43.2727 118.074 43.2727ZM157.631 51.6591C153.964 51.6591 150.813 50.9091 148.176 49.4091C145.555 47.8939 143.532 45.7879 142.108 43.0909C140.699 40.3788 139.994 37.2348 139.994 33.6591C139.994 30.0682 140.699 26.9242 142.108 24.2273C143.532 21.5152 145.555 19.4091 148.176 17.9091C150.813 16.3939 153.964 15.6364 157.631 15.6364C161.297 15.6364 164.441 16.3939 167.062 17.9091C169.699 19.4091 171.722 21.5152 173.131 24.2273C174.555 26.9242 175.267 30.0682 175.267 33.6591C175.267 37.2348 174.555 40.3788 173.131 43.0909C171.722 45.7879 169.699 47.8939 167.062 49.4091C164.441 50.9091 161.297 51.6591 157.631 51.6591ZM157.699 43.2727C159.032 43.2727 160.161 42.8636 161.085 42.0455C162.009 41.2273 162.714 40.0909 163.199 38.6364C163.699 37.1818 163.949 35.5 163.949 33.5909C163.949 31.6515 163.699 29.9545 163.199 28.5C162.714 27.0455 162.009 25.9091 161.085 25.0909C160.161 24.2727 159.032 23.8636 157.699 23.8636C156.32 23.8636 155.153 24.2727 154.199 25.0909C153.259 25.9091 152.54 27.0455 152.04 28.5C151.555 29.9545 151.312 31.6515 151.312 33.5909C151.312 35.5 151.555 37.1818 152.04 38.6364C152.54 40.0909 153.259 41.2273 154.199 42.0455C155.153 42.8636 156.32 43.2727 157.699 43.2727ZM190.983 41.8409L191.028 28.5909H192.574L202.392 16.0909H214.983L200.392 34H197.46L190.983 41.8409ZM180.96 51V4.45454H192.074V51H180.96ZM202.642 51L193.506 36.5L200.824 28.6136L215.483 51H202.642Z"/>
</mask>
<path d="M13.3636 51.5909C11.1364 51.5909 9.15909 51.2197 7.43182 50.4773C5.7197 49.7197 4.36364 48.5833 3.36364 47.0682C2.37879 45.5379 1.88636 43.6212 1.88636 41.3182C1.88636 39.3788 2.22727 37.7424 2.90909 36.4091C3.59091 35.0758 4.5303 33.9924 5.72727 33.1591C6.92424 32.3258 8.30303 31.697 9.86364 31.2727C11.4242 30.8333 13.0909 30.5379 14.8636 30.3864C16.8485 30.2045 18.447 30.0152 19.6591 29.8182C20.8712 29.6061 21.75 29.3106 22.2955 28.9318C22.8561 28.5379 23.1364 27.9848 23.1364 27.2727V27.1591C23.1364 25.9924 22.7348 25.0909 21.9318 24.4545C21.1288 23.8182 20.0455 23.5 18.6818 23.5C17.2121 23.5 16.0303 23.8182 15.1364 24.4545C14.2424 25.0909 13.6742 25.9697 13.4318 27.0909L3.18182 26.7273C3.48485 24.6061 4.26515 22.7121 5.52273 21.0455C6.79545 19.3636 8.53788 18.0455 10.75 17.0909C12.9773 16.1212 15.6515 15.6364 18.7727 15.6364C21 15.6364 23.053 15.9015 24.9318 16.4318C26.8106 16.947 28.447 17.7045 29.8409 18.7045C31.2348 19.6894 32.3106 20.9015 33.0682 22.3409C33.8409 23.7803 34.2273 25.4242 34.2273 27.2727V51H23.7727V46.1364H23.5C22.8788 47.3182 22.0833 48.3182 21.1136 49.1364C20.1591 49.9545 19.0303 50.5682 17.7273 50.9773C16.4394 51.3864 14.9848 51.5909 13.3636 51.5909ZM16.7955 44.3182C17.9924 44.3182 19.0682 44.0758 20.0227 43.5909C20.9924 43.1061 21.7652 42.4394 22.3409 41.5909C22.9167 40.7273 23.2045 39.7273 23.2045 38.5909V35.2727C22.8864 35.4394 22.5 35.5909 22.0455 35.7273C21.6061 35.8636 21.1212 35.9924 20.5909 36.1136C20.0606 36.2348 19.5152 36.3409 18.9545 36.4318C18.3939 36.5227 17.8561 36.6061 17.3409 36.6818C16.2955 36.8485 15.4015 37.1061 14.6591 37.4545C13.9318 37.803 13.3712 38.2576 12.9773 38.8182C12.5985 39.3636 12.4091 40.0152 12.4091 40.7727C12.4091 41.9242 12.8182 42.803 13.6364 43.4091C14.4697 44.0152 15.5227 44.3182 16.7955 44.3182ZM41.0227 51V16.0909H52.1364V51H41.0227ZM46.5909 12.0227C45.0303 12.0227 43.6894 11.5076 42.5682 10.4773C41.447 9.43182 40.8864 8.17424 40.8864 6.70454C40.8864 5.25 41.447 4.00757 42.5682 2.97727C43.6894 1.93182 45.0303 1.40909 46.5909 1.40909C48.1667 1.40909 49.5076 1.93182 50.6136 2.97727C51.7348 4.00757 52.2955 5.25 52.2955 6.70454C52.2955 8.17424 51.7348 9.43182 50.6136 10.4773C49.5076 11.5076 48.1667 12.0227 46.5909 12.0227Z" fill="white"/>
<path d="M59.2102 51V4.45454H78.6193C82.1042 4.45454 85.0208 4.94697 87.3693 5.93182C89.733 6.91666 91.5057 8.29545 92.6875 10.0682C93.8845 11.8409 94.483 13.8939 94.483 16.2273C94.483 18 94.1117 19.5833 93.3693 20.9773C92.6269 22.3561 91.6042 23.5 90.3011 24.4091C88.9981 25.3182 87.4905 25.9545 85.7784 26.3182V26.7727C87.6572 26.8636 89.392 27.3712 90.983 28.2955C92.589 29.2197 93.8769 30.5076 94.8466 32.1591C95.8163 33.7955 96.3011 35.7348 96.3011 37.9773C96.3011 40.4773 95.6648 42.7121 94.392 44.6818C93.1193 46.6364 91.2784 48.1818 88.8693 49.3182C86.4602 50.4394 83.536 51 80.0966 51H59.2102ZM70.4602 41.9318H77.4148C79.8542 41.9318 81.6496 41.4697 82.8011 40.5455C83.9678 39.6212 84.5511 38.3333 84.5511 36.6818C84.5511 35.4848 84.2708 34.4545 83.7102 33.5909C83.1496 32.7121 82.3542 32.0379 81.3239 31.5682C80.2936 31.0833 79.0587 30.8409 77.6193 30.8409H70.4602V41.9318ZM70.4602 23.5909H76.6875C77.9148 23.5909 79.0057 23.3864 79.9602 22.9773C80.9148 22.5682 81.6572 21.9773 82.1875 21.2045C82.733 20.4318 83.0057 19.5 83.0057 18.4091C83.0057 16.8485 82.4527 15.6212 81.3466 14.7273C80.2405 13.8333 78.7481 13.3864 76.8693 13.3864H70.4602V23.5909ZM118.006 51.6591C114.339 51.6591 111.188 50.9091 108.551 49.4091C105.93 47.8939 103.907 45.7879 102.483 43.0909C101.074 40.3788 100.369 37.2348 100.369 33.6591C100.369 30.0682 101.074 26.9242 102.483 24.2273C103.907 21.5152 105.93 19.4091 108.551 17.9091C111.188 16.3939 114.339 15.6364 118.006 15.6364C121.672 15.6364 124.816 16.3939 127.438 17.9091C130.074 19.4091 132.097 21.5152 133.506 24.2273C134.93 26.9242 135.642 30.0682 135.642 33.6591C135.642 37.2348 134.93 40.3788 133.506 43.0909C132.097 45.7879 130.074 47.8939 127.438 49.4091C124.816 50.9091 121.672 51.6591 118.006 51.6591ZM118.074 43.2727C119.407 43.2727 120.536 42.8636 121.46 42.0455C122.384 41.2273 123.089 40.0909 123.574 38.6364C124.074 37.1818 124.324 35.5 124.324 33.5909C124.324 31.6515 124.074 29.9545 123.574 28.5C123.089 27.0455 122.384 25.9091 121.46 25.0909C120.536 24.2727 119.407 23.8636 118.074 23.8636C116.695 23.8636 115.528 24.2727 114.574 25.0909C113.634 25.9091 112.915 27.0455 112.415 28.5C111.93 29.9545 111.688 31.6515 111.688 33.5909C111.688 35.5 111.93 37.1818 112.415 38.6364C112.915 40.0909 113.634 41.2273 114.574 42.0455C115.528 42.8636 116.695 43.2727 118.074 43.2727ZM157.631 51.6591C153.964 51.6591 150.813 50.9091 148.176 49.4091C145.555 47.8939 143.532 45.7879 142.108 43.0909C140.699 40.3788 139.994 37.2348 139.994 33.6591C139.994 30.0682 140.699 26.9242 142.108 24.2273C143.532 21.5152 145.555 19.4091 148.176 17.9091C150.813 16.3939 153.964 15.6364 157.631 15.6364C161.297 15.6364 164.441 16.3939 167.062 17.9091C169.699 19.4091 171.722 21.5152 173.131 24.2273C174.555 26.9242 175.267 30.0682 175.267 33.6591C175.267 37.2348 174.555 40.3788 173.131 43.0909C171.722 45.7879 169.699 47.8939 167.062 49.4091C164.441 50.9091 161.297 51.6591 157.631 51.6591ZM157.699 43.2727C159.032 43.2727 160.161 42.8636 161.085 42.0455C162.009 41.2273 162.714 40.0909 163.199 38.6364C163.699 37.1818 163.949 35.5 163.949 33.5909C163.949 31.6515 163.699 29.9545 163.199 28.5C162.714 27.0455 162.009 25.9091 161.085 25.0909C160.161 24.2727 159.032 23.8636 157.699 23.8636C156.32 23.8636 155.153 24.2727 154.199 25.0909C153.259 25.9091 152.54 27.0455 152.04 28.5C151.555 29.9545 151.312 31.6515 151.312 33.5909C151.312 35.5 151.555 37.1818 152.04 38.6364C152.54 40.0909 153.259 41.2273 154.199 42.0455C155.153 42.8636 156.32 43.2727 157.699 43.2727ZM190.983 41.8409L191.028 28.5909H192.574L202.392 16.0909H214.983L200.392 34H197.46L190.983 41.8409ZM180.96 51V4.45454H192.074V51H180.96ZM202.642 51L193.506 36.5L200.824 28.6136L215.483 51H202.642Z" fill="black"/>
<path d="M7.43182 50.4773L7.02716 51.3918L7.03693 51.396L7.43182 50.4773ZM3.36364 47.0682L2.52267 47.6094L2.52903 47.619L3.36364 47.0682ZM2.90909 36.4091L2.01875 35.9538L2.01875 35.9538L2.90909 36.4091ZM5.72727 33.1591L6.29864 33.9798L6.29864 33.9798L5.72727 33.1591ZM9.86364 31.2727L10.126 32.2377L10.1347 32.2353L9.86364 31.2727ZM14.8636 30.3864L14.9488 31.3827L14.9549 31.3822L14.8636 30.3864ZM19.6591 29.8182L19.8195 30.8053L19.8315 30.8032L19.6591 29.8182ZM22.2955 28.9318L22.8659 29.7532L22.8704 29.75L22.2955 28.9318ZM21.9318 24.4545L22.5529 23.6708L22.5529 23.6708L21.9318 24.4545ZM15.1364 24.4545L14.5564 23.6399L14.5564 23.6399L15.1364 24.4545ZM13.4318 27.0909L13.3964 28.0903L14.2324 28.1199L14.4092 27.3022L13.4318 27.0909ZM3.18182 26.7273L2.19187 26.5859L2.03453 27.6872L3.14636 27.7266L3.18182 26.7273ZM5.52273 21.0455L4.72532 20.442L4.72447 20.4431L5.52273 21.0455ZM10.75 17.0909L11.1462 18.0091L11.1492 18.0078L10.75 17.0909ZM24.9318 16.4318L24.6602 17.3942L24.6674 17.3962L24.9318 16.4318ZM29.8409 18.7045L29.258 19.5171L29.2639 19.5213L29.8409 18.7045ZM33.0682 22.3409L32.1832 22.8067L32.1871 22.8139L33.0682 22.3409ZM34.2273 51V52H35.2273V51H34.2273ZM23.7727 51H22.7727V52H23.7727V51ZM23.7727 46.1364H24.7727V45.1364H23.7727V46.1364ZM23.5 46.1364V45.1364H22.8959L22.6148 45.6711L23.5 46.1364ZM21.1136 49.1364L20.4687 48.372L20.4628 48.3771L21.1136 49.1364ZM17.7273 50.9773L17.4277 50.0232L17.4245 50.0242L17.7273 50.9773ZM20.0227 43.5909L19.5755 42.6965L19.5699 42.6993L20.0227 43.5909ZM22.3409 41.5909L23.1684 42.1524L23.173 42.1456L22.3409 41.5909ZM23.2045 35.2727H24.2045V33.62L22.7405 34.3869L23.2045 35.2727ZM22.0455 35.7273L21.7581 34.7694L21.7491 34.7722L22.0455 35.7273ZM18.9545 36.4318L19.1146 37.4189L19.1146 37.4189L18.9545 36.4318ZM17.3409 36.6818L17.1954 35.6924L17.1835 35.6943L17.3409 36.6818ZM14.6591 37.4545L14.2342 36.5493L14.227 36.5527L14.6591 37.4545ZM12.9773 38.8182L12.1591 38.2432L12.1559 38.2478L12.9773 38.8182ZM13.6364 43.4091L13.0411 44.2127L13.0482 44.2178L13.6364 43.4091ZM13.3636 50.5909C11.2475 50.5909 9.4084 50.2384 7.82671 49.5585L7.03693 51.396C8.90978 52.201 11.0253 52.5909 13.3636 52.5909V50.5909ZM7.83645 49.5628C6.29374 48.8802 5.08928 47.8674 4.19825 46.5173L2.52903 47.619C3.63799 49.2993 5.14565 50.5592 7.02718 51.3918L7.83645 49.5628ZM4.20454 46.527C3.34794 45.196 2.88636 43.4799 2.88636 41.3182H0.886364C0.886364 43.7625 1.40964 45.8798 2.52273 47.6094L4.20454 46.527ZM2.88636 41.3182C2.88636 39.4919 3.20777 38.0214 3.79943 36.8644L2.01875 35.9538C1.24677 37.4634 0.886364 39.2657 0.886364 41.3182H2.88636ZM3.79943 36.8644C4.40861 35.6731 5.24007 34.7168 6.29864 33.9798L5.1559 32.3384C3.82053 33.2681 2.77321 34.4784 2.01875 35.9538L3.79943 36.8644ZM6.29864 33.9798C7.39196 33.2186 8.66391 32.6352 10.126 32.2377L9.60131 30.3077C7.94215 30.7588 6.45653 31.4329 5.1559 32.3384L6.29864 33.9798ZM10.1347 32.2353C11.629 31.8146 13.2329 31.5294 14.9488 31.3827L14.7785 29.39C12.9489 29.5464 11.2195 29.8521 9.59262 30.3102L10.1347 32.2353ZM14.9549 31.3822C16.9505 31.1994 18.5748 31.0075 19.8195 30.8052L19.4987 28.8311C18.3191 29.0228 16.7464 29.2097 14.7724 29.3905L14.9549 31.3822ZM19.8315 30.8032C21.085 30.5839 22.1385 30.2583 22.8659 29.7532L21.7251 28.1104C21.3615 28.3629 20.6575 28.6283 19.4867 28.8332L19.8315 30.8032ZM22.8704 29.75C23.7097 29.1603 24.1364 28.2953 24.1364 27.2727H22.1364C22.1364 27.6744 22.0025 27.9155 21.7205 28.1136L22.8704 29.75ZM24.1364 27.2727V27.1591H22.1364V27.2727H24.1364ZM24.1364 27.1591C24.1364 25.7349 23.6305 24.5247 22.5529 23.6708L21.3107 25.2383C21.8392 25.6571 22.1364 26.2499 22.1364 27.1591H24.1364ZM22.5529 23.6708C21.5224 22.8542 20.1963 22.5 18.6818 22.5V24.5C19.8946 24.5 20.7352 24.7822 21.3107 25.2383L22.5529 23.6708ZM18.6818 22.5C17.0738 22.5 15.6687 22.8481 14.5564 23.6399L15.7163 25.2692C16.3919 24.7883 17.3505 24.5 18.6818 24.5V22.5ZM14.5564 23.6399C13.4495 24.4278 12.7469 25.5269 12.4544 26.8796L14.4092 27.3022C14.6016 26.4125 15.0353 25.754 15.7163 25.2692L14.5564 23.6399ZM13.4673 26.0915L3.21727 25.7279L3.14636 27.7266L13.3964 28.0903L13.4673 26.0915ZM4.17177 26.8687C4.45154 24.9103 5.16799 23.1758 6.32098 21.6478L4.72447 20.4431C3.36231 22.2484 2.51815 24.3019 2.19187 26.5859L4.17177 26.8687ZM6.32013 21.6489C7.47448 20.1235 9.06985 18.905 11.1462 18.0091L10.3538 16.1727C8.00591 17.1859 6.11643 18.6038 4.72532 20.442L6.32013 21.6489ZM11.1492 18.0078C13.2201 17.1061 15.7513 16.6364 18.7727 16.6364V14.6364C15.5517 14.6364 12.7344 15.1363 10.3508 16.174L11.1492 18.0078ZM18.7727 16.6364C20.9208 16.6364 22.8812 16.8921 24.6602 17.3942L25.2035 15.4694C23.2249 14.9109 21.0792 14.6364 18.7727 14.6364V16.6364ZM24.6674 17.3962C26.4472 17.8842 27.9725 18.5949 29.258 19.5171L30.4238 17.892C28.9214 16.8142 27.174 16.0097 25.1963 15.4674L24.6674 17.3962ZM29.2639 19.5213C30.5355 20.4197 31.5028 21.5138 32.1833 22.8067L33.9531 21.8752C33.1184 20.2892 31.9342 18.9591 30.4179 17.8878L29.2639 19.5213ZM32.1871 22.8139C32.872 24.0897 33.2273 25.5673 33.2273 27.2727H35.2273C35.2273 25.2812 34.8098 23.4709 33.9493 21.8679L32.1871 22.8139ZM33.2273 27.2727V51H35.2273V27.2727H33.2273ZM34.2273 50H23.7727V52H34.2273V50ZM24.7727 51V46.1364H22.7727V51H24.7727ZM23.7727 45.1364H23.5V47.1364H23.7727V45.1364ZM22.6148 45.6711C22.0505 46.7447 21.3347 47.6414 20.4688 48.3721L21.7585 49.9007C22.832 48.9949 23.7071 47.8916 24.3852 46.6016L22.6148 45.6711ZM20.4628 48.3771C19.6196 49.0999 18.613 49.6511 17.4277 50.0232L18.0268 51.9314C19.4477 51.4853 20.6986 50.8092 21.7644 49.8956L20.4628 48.3771ZM17.4245 50.0242C16.2518 50.3967 14.902 50.5909 13.3636 50.5909V52.5909C15.0677 52.5909 16.627 52.376 18.03 51.9303L17.4245 50.0242ZM16.7955 45.3182C18.131 45.3182 19.3649 45.0467 20.4756 44.4825L19.5699 42.6993C18.7715 43.1049 17.8538 43.3182 16.7955 43.3182V45.3182ZM20.4699 44.4853C21.5837 43.9284 22.4909 43.1508 23.1684 42.1524L21.5134 41.0294C21.0394 41.728 20.4011 42.2837 19.5755 42.6965L20.4699 44.4853ZM23.173 42.1456C23.8686 41.1022 24.2045 39.9052 24.2045 38.5909H22.2045C22.2045 39.5494 21.9648 40.3524 21.5089 41.0362L23.173 42.1456ZM24.2045 38.5909V35.2727H22.2045V38.5909H24.2045ZM22.7405 34.3869C22.4935 34.5163 22.1698 34.6459 21.7581 34.7694L22.3328 36.6851C22.8302 36.5359 23.2793 36.3625 23.6686 36.1586L22.7405 34.3869ZM21.7491 34.7722C21.3378 34.8998 20.8779 35.0222 20.3681 35.1388L20.8137 37.0885C21.3645 36.9626 21.8743 36.8274 22.3419 36.6823L21.7491 34.7722ZM20.3681 35.1388C19.8595 35.255 19.335 35.3571 18.7945 35.4447L19.1146 37.4189C19.6953 37.3248 20.2618 37.2147 20.8137 37.0885L20.3681 35.1388ZM18.7945 35.4447C18.2383 35.5349 17.7053 35.6175 17.1954 35.6925L17.4864 37.6712C18.0068 37.5946 18.5496 37.5105 19.1146 37.4189L18.7945 35.4447ZM17.1835 35.6943C16.0708 35.8717 15.0819 36.1514 14.2342 36.5493L15.084 38.3598C15.7211 38.0607 16.5201 37.8253 17.4983 37.6693L17.1835 35.6943ZM14.227 36.5527C13.3726 36.9621 12.6677 37.5194 12.1591 38.2432L13.7955 39.3931C14.0747 38.9958 14.491 38.6439 15.0912 38.3564L14.227 36.5527ZM12.1559 38.2478C11.6449 38.9836 11.4091 39.841 11.4091 40.7727H13.4091C13.4091 40.1893 13.552 39.7437 13.7986 39.3886L12.1559 38.2478ZM11.4091 40.7727C11.4091 42.1935 11.9324 43.3913 13.0411 44.2126L14.2316 42.6055C13.704 42.2147 13.4091 41.655 13.4091 40.7727H11.4091ZM13.0482 44.2178C14.0892 44.9749 15.3618 45.3182 16.7955 45.3182V43.3182C15.6836 43.3182 14.8502 43.0554 14.2245 42.6004L13.0482 44.2178ZM41.0227 51H40.0227V52H41.0227V51ZM41.0227 16.0909V15.0909H40.0227V16.0909H41.0227ZM52.1364 16.0909H53.1364V15.0909H52.1364V16.0909ZM52.1364 51V52H53.1364V51H52.1364ZM42.5682 10.4773L41.8862 11.2087L41.8916 11.2136L42.5682 10.4773ZM42.5682 2.97727L43.2448 3.71362L43.2501 3.70866L42.5682 2.97727ZM50.6136 2.97727L49.9267 3.70408L49.937 3.7136L50.6136 2.97727ZM50.6136 10.4773L51.2952 11.209L51.2956 11.2087L50.6136 10.4773ZM42.0227 51V16.0909H40.0227V51H42.0227ZM41.0227 17.0909H52.1364V15.0909H41.0227V17.0909ZM51.1364 16.0909V51H53.1364V16.0909H51.1364ZM52.1364 50H41.0227V52H52.1364V50ZM46.5909 11.0227C45.274 11.0227 44.1765 10.5971 43.2448 9.74094L41.8916 11.2136C43.2023 12.4181 44.7866 13.0227 46.5909 13.0227V11.0227ZM43.2501 9.74589C42.3219 8.88039 41.8864 7.8837 41.8864 6.70454H39.8864C39.8864 8.46478 40.572 9.98324 41.8862 11.2087L43.2501 9.74589ZM41.8864 6.70454C41.8864 5.54435 42.3188 4.56455 43.2448 3.7136L41.8916 2.24094C40.5752 3.4506 39.8864 4.95564 39.8864 6.70454H41.8864ZM43.2501 3.70866C44.1826 2.83924 45.2784 2.40909 46.5909 2.40909V0.409088C44.7822 0.409088 43.1962 1.02439 41.8862 2.24589L43.2501 3.70866ZM46.5909 2.40909C47.9212 2.40909 49.0135 2.84079 49.9267 3.70401L51.3006 2.25054C50.0017 1.02284 48.4121 0.409088 46.5909 0.409088V2.40909ZM49.937 3.7136C50.863 4.56455 51.2955 5.54435 51.2955 6.70454H53.2955C53.2955 4.95564 52.6067 3.4506 51.2903 2.24094L49.937 3.7136ZM51.2955 6.70454C51.2955 7.8837 50.8599 8.88039 49.9317 9.74589L51.2956 11.2087C52.6098 9.98324 53.2955 8.46478 53.2955 6.70454H51.2955ZM49.932 9.74555C49.0196 10.5955 47.9256 11.0227 46.5909 11.0227V13.0227C48.4078 13.0227 49.9956 12.4196 51.2952 11.209L49.932 9.74555ZM59.2102 51H58.2102V52H59.2102V51ZM59.2102 4.45454V3.45454H58.2102V4.45454H59.2102ZM87.3693 5.93182L86.9826 6.85401L86.9847 6.85489L87.3693 5.93182ZM92.6875 10.0682L91.8554 10.6229L91.8587 10.6278L92.6875 10.0682ZM93.3693 20.9773L94.2498 21.4514L94.2519 21.4474L93.3693 20.9773ZM90.3011 24.4091L89.729 23.589L89.729 23.589L90.3011 24.4091ZM85.7784 26.3182L85.5707 25.34L84.7784 25.5083V26.3182H85.7784ZM85.7784 26.7727H84.7784V27.7255L85.7301 27.7716L85.7784 26.7727ZM90.983 28.2955L90.4806 29.1601L90.4842 29.1622L90.983 28.2955ZM94.8466 32.1591L93.9842 32.6654L93.9863 32.6689L94.8466 32.1591ZM94.392 44.6818L95.2301 45.2275L95.232 45.2245L94.392 44.6818ZM88.8693 49.3182L89.2913 50.2248L89.2959 50.2226L88.8693 49.3182ZM70.4602 41.9318H69.4602V42.9318H70.4602V41.9318ZM82.8011 40.5455L82.1802 39.7616L82.1752 39.7656L82.8011 40.5455ZM83.7102 33.5909L82.8671 34.1287L82.8714 34.1354L83.7102 33.5909ZM81.3239 31.5682L80.898 32.4731L80.9091 32.4781L81.3239 31.5682ZM70.4602 30.8409V29.8409H69.4602V30.8409H70.4602ZM70.4602 23.5909H69.4602V24.5909H70.4602V23.5909ZM82.1875 21.2045L81.3705 20.6278L81.363 20.6387L82.1875 21.2045ZM81.3466 14.7273L81.9752 13.9495L81.9752 13.9495L81.3466 14.7273ZM70.4602 13.3864V12.3864H69.4602V13.3864H70.4602ZM60.2102 51V4.45454H58.2102V51H60.2102ZM59.2102 5.45454H78.6193V3.45454H59.2102V5.45454ZM78.6193 5.45454C82.0172 5.45454 84.7928 5.93569 86.9826 6.85401L87.756 5.00962C85.2489 3.95824 82.1911 3.45454 78.6193 3.45454V5.45454ZM86.9847 6.85489C89.2034 7.77936 90.8036 9.04511 91.8554 10.6229L93.5196 9.51348C92.2078 7.5458 90.2625 6.05397 87.7539 5.00874L86.9847 6.85489ZM91.8587 10.6278C92.934 12.2202 93.483 14.0744 93.483 16.2273H95.483C95.483 13.7134 94.835 11.4616 93.5163 9.50859L91.8587 10.6278ZM93.483 16.2273C93.483 17.8564 93.143 19.2749 92.4867 20.5072L94.2519 21.4474C95.0805 19.8917 95.483 18.1436 95.483 16.2273H93.483ZM92.4888 20.5032C91.8218 21.742 90.9055 22.7681 89.729 23.589L90.8733 25.2292C92.3028 24.2319 93.432 22.9701 94.2498 21.4514L92.4888 20.5032ZM89.729 23.589C88.5463 24.4141 87.1653 25.0013 85.5707 25.34L85.9862 27.2964C87.8158 26.9078 89.4499 26.2223 90.8733 25.2292L89.729 23.589ZM84.7784 26.3182V26.7727H86.7784V26.3182H84.7784ZM85.7301 27.7716C87.4527 27.8549 89.0313 28.3181 90.4806 29.1601L91.4853 27.4308C89.7528 26.4243 87.8617 25.8724 85.8267 25.7739L85.7301 27.7716ZM90.4842 29.1622C91.9347 29.9969 93.0993 31.1583 93.9843 32.6654L95.7089 31.6528C94.6544 29.8568 93.2434 28.4425 91.4817 27.4287L90.4842 29.1622ZM93.9863 32.6689C94.8493 34.1253 95.3011 35.8819 95.3011 37.9773H97.3011C97.3011 35.5878 96.7832 33.4656 95.7069 31.6493L93.9863 32.6689ZM95.3011 37.9773C95.3011 40.298 94.7134 42.342 93.5521 44.1391L95.232 45.2245C96.6162 43.0823 97.3011 40.6565 97.3011 37.9773H95.3011ZM93.554 44.1361C92.3963 45.9142 90.7084 47.345 88.4427 48.4138L89.2959 50.2226C91.8484 49.0186 93.8424 47.3586 95.23 45.2275L93.554 44.1361ZM88.4474 48.4116C86.2033 49.456 83.4315 50 80.0966 50V52C83.6405 52 86.7171 51.4228 89.2913 50.2248L88.4474 48.4116ZM80.0966 50H59.2102V52H80.0966V50ZM70.4602 42.9318H77.4148V40.9318H70.4602V42.9318ZM77.4148 42.9318C79.9451 42.9318 82.0147 42.4589 83.4271 41.3253L82.1752 39.7656C81.2845 40.4805 79.7632 40.9318 77.4148 40.9318V42.9318ZM83.4221 41.3293C84.8566 40.1929 85.5511 38.6006 85.5511 36.6818H83.5511C83.5511 38.066 83.079 39.0495 82.1802 39.7616L83.4221 41.3293ZM85.5511 36.6818C85.5511 35.3237 85.231 34.0971 84.549 33.0464L82.8714 34.1354C83.3106 34.8119 83.5511 35.646 83.5511 36.6818H85.5511ZM84.5533 33.0531C83.8799 31.9975 82.9289 31.2009 81.7387 30.6583L80.9091 32.4781C81.7795 32.8749 82.4194 33.4268 82.8672 34.1287L84.5533 33.0531ZM81.7497 30.6634C80.5558 30.1016 79.1682 29.8409 77.6193 29.8409V31.8409C78.9492 31.8409 80.0313 32.0651 80.8981 32.473L81.7497 30.6634ZM77.6193 29.8409H70.4602V31.8409H77.6193V29.8409ZM69.4602 30.8409V41.9318H71.4602V30.8409H69.4602ZM70.4602 24.5909H76.6875V22.5909H70.4602V24.5909ZM76.6875 24.5909C78.026 24.5909 79.2546 24.3676 80.3541 23.8964L79.5663 22.0581C78.7567 22.4051 77.8036 22.5909 76.6875 22.5909V24.5909ZM80.3541 23.8964C81.4633 23.4211 82.3632 22.7159 83.012 21.7704L81.363 20.6387C80.9512 21.2387 80.3662 21.7153 79.5663 22.0581L80.3541 23.8964ZM83.0045 21.7812C83.6866 20.8149 84.0057 19.6738 84.0057 18.4091H82.0057C82.0057 19.3262 81.7793 20.0488 81.3705 20.6279L83.0045 21.7812ZM84.0057 18.4091C84.0057 16.58 83.341 15.0534 81.9752 13.9495L80.718 15.505C81.5643 16.189 82.0057 17.117 82.0057 18.4091H84.0057ZM81.9752 13.9495C80.6412 12.8714 78.903 12.3864 76.8693 12.3864V14.3864C78.5932 14.3864 79.8399 14.7953 80.718 15.505L81.9752 13.9495ZM76.8693 12.3864H70.4602V14.3864H76.8693V12.3864ZM69.4602 13.3864V23.5909H71.4602V13.3864H69.4602ZM108.551 49.4091L108.051 50.2749L108.057 50.2783L108.551 49.4091ZM102.483 43.0909L101.596 43.552L101.599 43.5579L102.483 43.0909ZM102.483 24.2273L101.598 23.7623L101.597 23.7642L102.483 24.2273ZM108.551 17.9091L109.048 18.777L109.049 18.7761L108.551 17.9091ZM127.438 17.9091L126.937 18.7749L126.943 18.7783L127.438 17.9091ZM133.506 24.2273L132.618 24.6883L132.621 24.6942L133.506 24.2273ZM133.506 43.0909L132.62 42.626L132.619 42.6278L133.506 43.0909ZM127.438 49.4091L127.934 50.277L127.936 50.2761L127.438 49.4091ZM121.46 42.0455L120.797 41.2967L120.797 41.2967L121.46 42.0455ZM123.574 38.6364L122.628 38.3113L122.625 38.3201L123.574 38.6364ZM123.574 28.5L122.625 28.8162L122.628 28.8251L123.574 28.5ZM121.46 25.0909L122.123 24.3421L122.123 24.3421L121.46 25.0909ZM114.574 25.0909L113.923 24.3316L113.917 24.3368L114.574 25.0909ZM112.415 28.5L111.469 28.1749L111.466 28.1838L112.415 28.5ZM112.415 38.6364L111.466 38.9526L111.469 38.9614L112.415 38.6364ZM114.574 42.0455L113.917 42.7996L113.923 42.8047L114.574 42.0455ZM118.006 50.6591C114.476 50.6591 111.503 49.9379 109.046 48.5399L108.057 50.2783C110.872 51.8803 114.202 52.6591 118.006 52.6591V50.6591ZM109.052 48.5433C106.595 47.1231 104.704 45.1558 103.367 42.6239L101.599 43.5579C103.11 46.4199 105.265 48.6648 108.051 50.2749L109.052 48.5433ZM103.37 42.6299C102.047 40.0825 101.369 37.1016 101.369 33.6591H99.3693C99.3693 37.3681 100.101 40.675 101.596 43.5519L103.37 42.6299ZM101.369 33.6591C101.369 30.2005 102.047 27.2207 103.369 24.6903L101.597 23.7642C100.101 26.6278 99.3693 29.9359 99.3693 33.6591H101.369ZM103.368 24.6922C104.705 22.1461 106.594 20.181 109.048 18.777L108.054 17.0412C105.265 18.6372 103.109 20.8842 101.598 23.7623L103.368 24.6922ZM109.049 18.7761C111.506 17.3644 114.478 16.6364 118.006 16.6364V14.6364C114.2 14.6364 110.869 15.4235 108.053 17.0421L109.049 18.7761ZM118.006 16.6364C121.534 16.6364 124.497 17.3645 126.937 18.7749L127.938 17.0433C125.135 15.4234 121.811 14.6364 118.006 14.6364V16.6364ZM126.943 18.7783C129.41 20.1822 131.297 22.1459 132.618 24.6883L134.393 23.7662C132.896 20.8844 130.737 18.636 127.932 17.0399L126.943 18.7783ZM132.621 24.6942C133.957 27.2238 134.642 30.2021 134.642 33.6591H136.642C136.642 29.9343 135.903 26.6247 134.39 23.7603L132.621 24.6942ZM134.642 33.6591C134.642 37.1 133.958 40.0795 132.62 42.626L134.391 43.5558C135.902 40.6781 136.642 37.3697 136.642 33.6591H134.642ZM132.619 42.6278C131.298 45.1561 129.41 47.1219 126.939 48.5421L127.936 50.2761C130.737 48.6659 132.895 46.4197 134.392 43.554L132.619 42.6278ZM126.941 48.5412C124.5 49.9379 121.535 50.6591 118.006 50.6591V52.6591C121.809 52.6591 125.132 51.8803 127.934 50.277L126.941 48.5412ZM118.074 44.2727C119.63 44.2727 121.001 43.7878 122.123 42.7942L120.797 41.2967C120.071 41.9395 119.184 42.2727 118.074 42.2727V44.2727ZM122.123 42.7942C123.207 41.8344 123.995 40.5339 124.523 38.9526L122.625 38.3201C122.183 39.6479 121.562 40.6201 120.797 41.2967L122.123 42.7942ZM124.52 38.9614C125.063 37.3805 125.324 35.585 125.324 33.5909H123.324C123.324 35.415 123.085 36.9831 122.628 38.3113L124.52 38.9614ZM125.324 33.5909C125.324 31.5685 125.063 29.7573 124.52 28.1749L122.628 28.8251C123.084 30.1518 123.324 31.7346 123.324 33.5909H125.324ZM124.523 28.1838C123.995 26.6024 123.207 25.302 122.123 24.3421L120.797 25.8397C121.562 26.5162 122.183 27.4885 122.625 28.8162L124.523 28.1838ZM122.123 24.3421C121.001 23.3486 119.63 22.8636 118.074 22.8636V24.8636C119.184 24.8636 120.071 25.1969 120.797 25.8397L122.123 24.3421ZM118.074 22.8636C116.481 22.8636 115.077 23.3427 113.923 24.3317L115.225 25.8502C115.98 25.2028 116.909 24.8636 118.074 24.8636V22.8636ZM113.917 24.3368C112.818 25.2943 112.013 26.5931 111.469 28.1749L113.36 28.8251C113.817 27.4978 114.451 26.5238 115.231 25.845L113.917 24.3368ZM111.466 28.1838C110.94 29.7632 110.688 31.5712 110.688 33.5909H112.688C112.688 31.7319 112.92 30.1459 113.363 28.8162L111.466 28.1838ZM110.688 33.5909C110.688 35.5822 110.94 37.3746 111.466 38.9526L113.363 38.3201C112.92 36.989 112.688 35.4178 112.688 33.5909H110.688ZM111.469 38.9614C112.013 40.5432 112.818 41.842 113.917 42.7995L115.231 41.2914C114.451 40.6125 113.817 39.6386 113.36 38.3113L111.469 38.9614ZM113.923 42.8047C115.077 43.7937 116.481 44.2727 118.074 44.2727V42.2727C116.909 42.2727 115.98 41.9336 115.225 41.2862L113.923 42.8047ZM148.176 49.4091L147.676 50.2749L147.682 50.2783L148.176 49.4091ZM142.108 43.0909L141.221 43.552L141.224 43.5579L142.108 43.0909ZM142.108 24.2273L141.223 23.7623L141.222 23.7642L142.108 24.2273ZM148.176 17.9091L148.673 18.777L148.674 18.7761L148.176 17.9091ZM167.062 17.9091L166.562 18.7749L166.568 18.7783L167.062 17.9091ZM173.131 24.2273L172.243 24.6883L172.246 24.6942L173.131 24.2273ZM173.131 43.0909L172.245 42.626L172.244 42.6278L173.131 43.0909ZM167.062 49.4091L167.559 50.277L167.561 50.2761L167.062 49.4091ZM161.085 42.0455L160.422 41.2967L160.422 41.2967L161.085 42.0455ZM163.199 38.6364L162.253 38.3113L162.25 38.3201L163.199 38.6364ZM163.199 28.5L162.25 28.8162L162.253 28.8251L163.199 28.5ZM161.085 25.0909L161.748 24.3421L161.748 24.3421L161.085 25.0909ZM154.199 25.0909L153.548 24.3316L153.542 24.3368L154.199 25.0909ZM152.04 28.5L151.094 28.1749L151.091 28.1838L152.04 28.5ZM152.04 38.6364L151.091 38.9526L151.094 38.9614L152.04 38.6364ZM154.199 42.0455L153.542 42.7996L153.548 42.8047L154.199 42.0455ZM157.631 50.6591C154.101 50.6591 151.128 49.9379 148.671 48.5399L147.682 50.2783C150.497 51.8803 153.827 52.6591 157.631 52.6591V50.6591ZM148.677 48.5433C146.22 47.1231 144.329 45.1558 142.992 42.6239L141.224 43.5579C142.735 46.4199 144.89 48.6648 147.676 50.2749L148.677 48.5433ZM142.995 42.6299C141.672 40.0825 140.994 37.1016 140.994 33.6591H138.994C138.994 37.3681 139.726 40.675 141.221 43.5519L142.995 42.6299ZM140.994 33.6591C140.994 30.2005 141.672 27.2207 142.994 24.6903L141.222 23.7642C139.726 26.6278 138.994 29.9359 138.994 33.6591H140.994ZM142.993 24.6922C144.33 22.1461 146.219 20.181 148.673 18.777L147.679 17.0412C144.89 18.6372 142.734 20.8842 141.223 23.7623L142.993 24.6922ZM148.674 18.7761C151.131 17.3644 154.103 16.6364 157.631 16.6364V14.6364C153.825 14.6364 150.494 15.4235 147.678 17.0421L148.674 18.7761ZM157.631 16.6364C161.159 16.6364 164.122 17.3645 166.562 18.7749L167.563 17.0433C164.76 15.4234 161.436 14.6364 157.631 14.6364V16.6364ZM166.568 18.7783C169.035 20.1822 170.922 22.1459 172.243 24.6883L174.018 23.7662C172.521 20.8844 170.362 18.636 167.557 17.0399L166.568 18.7783ZM172.246 24.6942C173.582 27.2238 174.267 30.2021 174.267 33.6591H176.267C176.267 29.9343 175.528 26.6247 174.015 23.7603L172.246 24.6942ZM174.267 33.6591C174.267 37.1 173.583 40.0795 172.245 42.626L174.016 43.5558C175.527 40.6781 176.267 37.3697 176.267 33.6591H174.267ZM172.244 42.6278C170.923 45.1561 169.035 47.1219 166.564 48.5421L167.561 50.2761C170.362 48.6659 172.52 46.4197 174.017 43.554L172.244 42.6278ZM166.566 48.5412C164.125 49.9379 161.16 50.6591 157.631 50.6591V52.6591C161.434 52.6591 164.757 51.8803 167.559 50.277L166.566 48.5412ZM157.699 44.2727C159.255 44.2727 160.626 43.7878 161.748 42.7942L160.422 41.2967C159.696 41.9395 158.809 42.2727 157.699 42.2727V44.2727ZM161.748 42.7942C162.832 41.8344 163.62 40.5339 164.148 38.9526L162.25 38.3201C161.808 39.6479 161.187 40.6201 160.422 41.2967L161.748 42.7942ZM164.145 38.9614C164.688 37.3805 164.949 35.585 164.949 33.5909H162.949C162.949 35.415 162.71 36.9831 162.253 38.3113L164.145 38.9614ZM164.949 33.5909C164.949 31.5685 164.688 29.7573 164.145 28.1749L162.253 28.8251C162.709 30.1518 162.949 31.7346 162.949 33.5909H164.949ZM164.148 28.1838C163.62 26.6024 162.832 25.302 161.748 24.3421L160.422 25.8397C161.187 26.5162 161.808 27.4885 162.25 28.8162L164.148 28.1838ZM161.748 24.3421C160.626 23.3486 159.255 22.8636 157.699 22.8636V24.8636C158.809 24.8636 159.696 25.1969 160.422 25.8397L161.748 24.3421ZM157.699 22.8636C156.106 22.8636 154.702 23.3427 153.548 24.3317L154.85 25.8502C155.605 25.2028 156.534 24.8636 157.699 24.8636V22.8636ZM153.542 24.3368C152.443 25.2943 151.638 26.5931 151.094 28.1749L152.985 28.8251C153.442 27.4978 154.076 26.5238 154.856 25.845L153.542 24.3368ZM151.091 28.1838C150.565 29.7632 150.312 31.5712 150.312 33.5909H152.312C152.312 31.7319 152.545 30.1459 152.988 28.8162L151.091 28.1838ZM150.312 33.5909C150.312 35.5822 150.565 37.3746 151.091 38.9526L152.988 38.3201C152.545 36.989 152.312 35.4178 152.312 33.5909H150.312ZM151.094 38.9614C151.638 40.5432 152.443 41.842 153.542 42.7995L154.856 41.2914C154.076 40.6125 153.442 39.6386 152.985 38.3113L151.094 38.9614ZM153.548 42.8047C154.702 43.7937 156.106 44.2727 157.699 44.2727V42.2727C156.534 42.2727 155.605 41.9336 154.85 41.2862L153.548 42.8047ZM190.983 41.8409L189.983 41.8375L189.973 44.6332L191.754 42.4778L190.983 41.8409ZM191.028 28.5909V27.5909H190.032L190.028 28.5875L191.028 28.5909ZM192.574 28.5909V29.5909H193.06L193.36 29.2086L192.574 28.5909ZM202.392 16.0909V15.0909H201.906L201.606 15.4732L202.392 16.0909ZM214.983 16.0909L215.758 16.7225L217.088 15.0909H214.983V16.0909ZM200.392 34V35H200.867L201.167 34.6316L200.392 34ZM197.46 34V33H196.989L196.689 33.3631L197.46 34ZM180.96 51H179.96V52H180.96V51ZM180.96 4.45454V3.45454H179.96V4.45454H180.96ZM192.074 4.45454H193.074V3.45454H192.074V4.45454ZM192.074 51V52H193.074V51H192.074ZM202.642 51L201.796 51.5331L202.09 52H202.642V51ZM193.506 36.5L192.773 35.8198L192.25 36.383L192.66 37.0331L193.506 36.5ZM200.824 28.6136L201.66 28.0658L200.96 26.9965L200.091 27.9334L200.824 28.6136ZM215.483 51V52H217.333L216.32 50.4522L215.483 51ZM191.983 41.8443L192.028 28.5943L190.028 28.5875L189.983 41.8375L191.983 41.8443ZM191.028 29.5909H192.574V27.5909H191.028V29.5909ZM193.36 29.2086L203.178 16.7086L201.606 15.4732L191.787 27.9732L193.36 29.2086ZM202.392 17.0909H214.983V15.0909H202.392V17.0909ZM214.208 15.4593L199.617 33.3684L201.167 34.6316L215.758 16.7225L214.208 15.4593ZM200.392 33H197.46V35H200.392V33ZM196.689 33.3631L190.212 41.204L191.754 42.4778L198.231 34.6369L196.689 33.3631ZM181.96 51V4.45454H179.96V51H181.96ZM180.96 5.45454H192.074V3.45454H180.96V5.45454ZM191.074 4.45454V51H193.074V4.45454H191.074ZM192.074 50H180.96V52H192.074V50ZM203.488 50.4669L194.352 35.9669L192.66 37.0331L201.796 51.5331L203.488 50.4669ZM194.239 37.1802L201.557 29.2938L200.091 27.9334L192.773 35.8198L194.239 37.1802ZM199.987 29.1615L214.646 51.5478L216.32 50.4522L201.66 28.0658L199.987 29.1615ZM215.483 50H202.642V52H215.483V50Z" fill="black" mask="url(#path-1-outside-1_2_2)"/>
</svg>
